<?xml version="1.0" encoding="UTF-8"?>
<svg id="Artwork" xmlns="http://www.w3.org/2000/svg" xmlns:xlink="http://www.w3.org/1999/xlink" viewBox="0 0 50 50">
  <defs>
    <style>
      .cls-1 {
        fill: url(#linear-gradient-2);
      }

      .cls-2 {
        fill: #231f20;
      }

      .cls-3 {
        fill: url(#linear-gradient);
      }
    </style>
    <linearGradient id="linear-gradient" x1="8.62" y1="37.15" x2="41.52" y2="37.15" gradientUnits="userSpaceOnUse">
      <stop offset="0" stop-color="#0075bc"/>
      <stop offset="1" stop-color="#00b1eb"/>
    </linearGradient>
    <linearGradient id="linear-gradient-2" x1="8.67" y1="10.6" x2="41.47" y2="10.6" xlink:href="#linear-gradient"/>
  </defs>
  <g>
    <path class="cls-2" d="M6.03,20.5h-1.63c-.09-.49-.38-.82-1.07-.82-.57,0-.95.22-.95.64,0,.37.27.54.78.64l.91.19c1.2.25,1.96.74,1.96,1.86,0,1.3-1.07,2.11-2.7,2.11-1.46,0-2.78-.7-2.94-2.31h1.63c.11.57.59.94,1.36.94.57,0,.92-.22.92-.58,0-.23-.12-.47-.69-.57l-1.07-.23c-1.28-.28-1.88-.86-1.88-1.89,0-1.3,1.05-2.1,2.58-2.1,1.05,0,2.62.39,2.78,2.14Z"/>
    <path class="cls-2" d="M12.6,19.92h-2.08v5.06h-1.61v-5.06h-2.08v-1.44h5.76v1.44Z"/>
    <path class="cls-2" d="M20.08,21.73c0,1.89-1.48,3.38-3.44,3.38s-3.44-1.48-3.44-3.38,1.48-3.38,3.44-3.38,3.44,1.48,3.44,3.38ZM18.45,21.73c0-1.02-.76-1.87-1.81-1.87s-1.81.84-1.81,1.87.76,1.87,1.81,1.87,1.81-.84,1.81-1.87Z"/>
    <path class="cls-2" d="M30.42,18.48l-2.13,6.54h-1.53l-1.31-3.99-1.31,3.99h-1.53l-2.13-6.54h1.71l1.22,4.04,1.38-4.04h1.34l1.38,4.04,1.22-4.04h1.71Z"/>
    <path class="cls-2" d="M32.9,19.89v1.19h2.89v1.38h-2.89v1.13h3.3v1.41h-4.92v-6.51h4.92v1.41h-3.3Z"/>
    <path class="cls-2" d="M41.63,24.99l-1.23-1.88h-1.23v1.88h-1.62v-6.51h2.84c1.62,0,2.7.88,2.7,2.29,0,.85-.41,1.54-1.1,1.94l1.53,2.28h-1.88ZM39.16,21.65h1.2c.62,0,1.11-.34,1.11-.88s-.49-.86-1.11-.86h-1.2v1.74Z"/>
    <path class="cls-2" d="M49.73,20.5h-1.63c-.09-.49-.38-.82-1.07-.82-.57,0-.95.22-.95.64,0,.37.27.54.78.64l.91.19c1.2.25,1.96.74,1.96,1.86,0,1.3-1.07,2.11-2.7,2.11-1.46,0-2.78-.7-2.94-2.31h1.63c.11.57.59.94,1.36.94.57,0,.92-.22.92-.58,0-.23-.12-.47-.69-.57l-1.07-.23c-1.28-.28-1.88-.86-1.88-1.89,0-1.3,1.05-2.1,2.58-2.1,1.05,0,2.62.39,2.78,2.14Z"/>
  </g>
  <g>
    <path class="cls-2" d="M6.55,28.74h.46c-.1.57-.53.93-1.1.93-.64,0-1.16-.48-1.16-1.16s.52-1.16,1.16-1.16c.57,0,.99.37,1.1.93h-.46c-.08-.33-.31-.52-.63-.52-.41,0-.71.3-.71.74s.3.74.71.74c.33,0,.55-.19.63-.52Z"/>
    <path class="cls-2" d="M8.05,27.4v2.24h-.45v-2.24h.45Z"/>
    <path class="cls-2" d="M9.65,28.92h-.46v.71h-.45v-2.24h.94c.5,0,.88.3.88.76,0,.31-.17.55-.44.67l.58.8h-.54l-.51-.71ZM9.19,28.51h.48c.25,0,.45-.13.45-.35s-.2-.35-.45-.35h-.48v.7Z"/>
    <path class="cls-2" d="M12.87,28.74h.46c-.1.57-.53.93-1.1.93-.64,0-1.16-.48-1.16-1.16s.52-1.16,1.16-1.16c.57,0,.99.37,1.1.93h-.46c-.08-.33-.31-.52-.63-.52-.41,0-.71.3-.71.74s.3.74.71.74c.33,0,.55-.19.63-.52Z"/>
    <path class="cls-2" d="M15.89,28.63c0,.66-.4,1.05-1,1.05s-1-.39-1-1.05v-1.23h.45v1.23c0,.38.22.63.55.63s.56-.25.56-.63v-1.23h.45v1.23Z"/>
    <path class="cls-2" d="M18.16,29.22v.41h-1.6v-2.24h.45v1.82h1.15Z"/>
    <path class="cls-2" d="M20.25,29.18h-1.03l-.18.45h-.48l.97-2.24h.42l.97,2.24h-.48l-.18-.45ZM20.09,28.79l-.35-.86-.35.86h.7Z"/>
    <path class="cls-2" d="M22.29,28.92h-.46v.71h-.45v-2.24h.94c.5,0,.88.3.88.76,0,.31-.17.55-.44.67l.58.8h-.54l-.51-.71ZM21.83,28.51h.48c.25,0,.45-.13.45-.35s-.2-.35-.45-.35h-.48v.7Z"/>
    <path class="cls-2" d="M26.62,28.08h-.44c-.03-.21-.16-.34-.44-.34-.25,0-.41.1-.41.28,0,.16.12.23.33.27l.26.05c.44.09.69.26.69.63,0,.42-.35.7-.88.7-.55,0-.94-.3-.97-.78h.44c.04.23.24.38.55.38.25,0,.39-.09.39-.25,0-.1-.06-.2-.3-.24l-.36-.07c-.44-.09-.64-.31-.64-.65,0-.43.34-.7.85-.7.38,0,.87.15.92.72Z"/>
    <path class="cls-2" d="M29.45,28.51c0,.64-.52,1.16-1.16,1.16s-1.16-.51-1.16-1.16.52-1.16,1.16-1.16,1.16.51,1.16,1.16ZM29,28.51c0-.41-.3-.74-.71-.74s-.71.33-.71.74.3.74.71.74.71-.33.71-.74Z"/>
    <path class="cls-2" d="M31.65,29.22v.41h-1.6v-2.24h.45v1.82h1.15Z"/>
    <path class="cls-2" d="M34.05,28.63c0,.66-.4,1.05-1,1.05s-1-.39-1-1.05v-1.23h.45v1.23c0,.38.22.63.55.63s.56-.25.56-.63v-1.23h.45v1.23Z"/>
    <path class="cls-2" d="M36.49,27.81h-.76v1.82h-.45v-1.82h-.76v-.41h1.97v.41Z"/>
    <path class="cls-2" d="M37.42,27.4v2.24h-.45v-2.24h.45Z"/>
    <path class="cls-2" d="M40.34,28.51c0,.64-.52,1.16-1.16,1.16s-1.16-.51-1.16-1.16.52-1.16,1.16-1.16,1.16.51,1.16,1.16ZM39.89,28.51c0-.41-.3-.74-.71-.74s-.71.33-.71.74.3.74.71.74.71-.33.71-.74Z"/>
    <path class="cls-2" d="M42.94,27.4v2.24h-.35l-1.21-1.4v1.4h-.45v-2.24h.33l1.22,1.44v-1.44h.45Z"/>
    <path class="cls-2" d="M45.39,28.08h-.44c-.03-.21-.16-.34-.44-.34-.25,0-.41.1-.41.28,0,.16.12.23.33.27l.26.05c.44.09.69.26.69.63,0,.42-.35.7-.88.7-.55,0-.94-.3-.97-.78h.44c.04.23.24.38.55.38.25,0,.39-.09.39-.25,0-.1-.06-.2-.3-.24l-.36-.07c-.44-.09-.64-.31-.64-.65,0-.43.34-.7.85-.7.38,0,.87.15.92.72Z"/>
  </g>
  <path class="cls-3" d="M25.07,37.49c-4.28,0-8.3-2.03-10.87-5.44h-5.58l.2.38c3.19,6.06,9.42,9.82,16.25,9.82s13.05-3.76,16.25-9.82l.2-.38h-5.58c-2.57,3.42-6.59,5.44-10.87,5.44Z"/>
  <path class="cls-1" d="M25.07,10.31c4.23,0,8.23,1.99,10.8,5.35h5.6l-.21-.39c-3.21-6-9.41-9.72-16.19-9.72s-12.99,3.73-16.19,9.72l-.21.39h5.6c2.57-3.36,6.56-5.35,10.8-5.35Z"/>
</svg>